# xmcd
#
# Track frame offsets: 
#        150
#        15139
#        37203
#        58106
#        77993
#        102077
#        135827
#        157296
#        187416
#        203891
#        235444
#        258887
#
# Disc length: 3674 seconds
#
# Revision: 0
# Processed by: cddbd v1.5.2PL0 Copyright (c) Steve Scherf et al.
# Submitted via: ExactAudioCopy v0.95a4
#
DISCID=a50e580c
DTITLE=Various Artist - Midnight Rider A Tribute To The Allman Brothers Band
DYEAR=2014
DGENRE=Classic Rock
TTITLE0=Pat Travers - Midnight Rider
TTITLE1=Oak Ridge Boys, Tinsley Ellis and Kevin McKendree - Ramblin' Man
TTITLE2=Molly Hatchet - Melissa
TTITLE3=The Artimus Pyle Band - Blue Sky
TTITLE4=Jimmy Hall and Steve Morse - Whipping Post
TTITLE5=Jim Eshelman, Roy Rogers and John Wesley - Jessica
TTITLE6=Robben Ford and Martin Gerschwitz - One Way Out
TTITLE7=Debbie Davies and Melvin Seals - Soulshine
TTITLE8=Eli Cook - Statesboro Blues
TTITLE9=Eric Gales - In Memory Of Elizabeth Reed 
TTITLE10=Commander Cody and Sonny Landreth - Southbound
TTITLE11=Ronnie Earl, Leon Russell and Reese Wynans - I'm No Angel
EXTD=
EXTT0=
EXTT1=
EXTT2=
EXTT3=
EXTT4=
EXTT5=
EXTT6=
EXTT7=
EXTT8=
EXTT9=
EXTT10=
EXTT11=
PLAYORDER=
